<?xml version="1.0" encoding="UTF-8" standalone="no"?><!-- Generator: Gravit.io --><svg xmlns="http://www.w3.org/2000/svg" xmlns:xlink="http://www.w3.org/1999/xlink" style="isolation:isolate" viewBox="0 0 48 48" width="48pt" height="48pt"><defs><filter id="3bvbuHbCDuoGIXzR9SNp8314UhKE52Lq" x="-200%" y="-200%" width="400%" height="400%" filterUnits="objectBoundingBox" color-interpolation-filters="sRGB"><feGaussianBlur xmlns="http://www.w3.org/2000/svg" in="SourceGraphic" stdDeviation="1.7174436251356113"/><feOffset xmlns="http://www.w3.org/2000/svg" dx="0" dy="1" result="pf_100_offsetBlur"/><feFlood xmlns="http://www.w3.org/2000/svg" flood-color="#7B7B7B" flood-opacity="0.65"/><feComposite xmlns="http://www.w3.org/2000/svg" in2="pf_100_offsetBlur" operator="in" result="pf_100_dropShadow"/><feBlend xmlns="http://www.w3.org/2000/svg" in="SourceGraphic" in2="pf_100_dropShadow" mode="normal"/></filter><linearGradient id="_lgradient_44" x1="-0.015988372093023243" y1="0.0014534883720930258" x2="0.9122733543555378" y2="1.0450088687426096"><stop offset="0%" style="stop-color:#A770EF"/><stop offset="50%" style="stop-color:#CF8BF3"/><stop offset="98.33333333333333%" style="stop-color:#FDB99B"/></linearGradient></defs><g filter="url(#3bvbuHbCDuoGIXzR9SNp8314UhKE52Lq)"><path d="M 12.5 2.5 L 35.5 2.5 C 41.019 2.5 45.5 6.981 45.5 12.5 L 45.5 35.5 C 45.5 41.019 41.019 45.5 35.5 45.5 L 12.5 45.5 C 6.981 45.5 2.5 41.019 2.5 35.5 L 2.5 12.5 C 2.5 6.981 6.981 2.5 12.5 2.5 Z" style="stroke:none;fill:url(#_lgradient_44);stroke-miterlimit:10;"/></g><defs><filter id="8h9P3HJZpaeaWG7OsPVKQ0R6uDTOmOUv" x="-200%" y="-200%" width="400%" height="400%" filterUnits="objectBoundingBox" color-interpolation-filters="sRGB"><feGaussianBlur xmlns="http://www.w3.org/2000/svg" in="SourceGraphic" stdDeviation="1.7174436251356113"/><feOffset xmlns="http://www.w3.org/2000/svg" dx="0" dy="1" result="pf_100_offsetBlur"/><feFlood xmlns="http://www.w3.org/2000/svg" flood-color="#7B7B7B" flood-opacity="0.65"/><feComposite xmlns="http://www.w3.org/2000/svg" in2="pf_100_offsetBlur" operator="in" result="pf_100_dropShadow"/><feBlend xmlns="http://www.w3.org/2000/svg" in="SourceGraphic" in2="pf_100_dropShadow" mode="normal"/></filter></defs><g filter="url(#8h9P3HJZpaeaWG7OsPVKQ0R6uDTOmOUv)" style="mix-blend-mode:normal;" opacity="0.85"><path d="M 12.5 2.5 L 35.5 2.5 C 41.019 2.5 45.5 6.981 45.5 12.5 L 45.5 35.5 C 45.5 41.019 41.019 45.5 35.5 45.5 L 12.5 45.5 C 6.981 45.5 2.5 41.019 2.5 35.5 L 2.5 12.5 C 2.5 6.981 6.981 2.5 12.5 2.5 Z" style="stroke:none;fill:#F0F0F0;stroke-miterlimit:10;"/></g><g><linearGradient id="_lgradient_45" x1="0.8975826640992222" y1="0.15494163970389366" x2="0.07895083342649312" y2="0.9447814676286557" gradientTransform="matrix(29.997,0,0,29.99,9,9.007)" gradientUnits="userSpaceOnUse"><stop offset="4.8%" stop-opacity="1" style="stop-color:rgb(255,244,79)"/><stop offset="11.1%" stop-opacity="1" style="stop-color:rgb(255,232,71)"/><stop offset="22.5%" stop-opacity="1" style="stop-color:rgb(255,200,48)"/><stop offset="36.8%" stop-opacity="1" style="stop-color:rgb(255,152,14)"/><stop offset="40.1%" stop-opacity="1" style="stop-color:rgb(255,139,22)"/><stop offset="46.2%" stop-opacity="1" style="stop-color:rgb(255,103,42)"/><stop offset="53.400000000000006%" stop-opacity="1" style="stop-color:rgb(255,54,71)"/><stop offset="70.5%" stop-opacity="1" style="stop-color:rgb(227,21,135)"/></linearGradient><path d=" M 37.912 19.073 C 37.26 17.553 35.936 15.911 34.9 15.392 C 35.639 16.778 36.152 18.267 36.421 19.805 L 36.423 19.829 C 34.725 15.732 31.847 14.077 29.495 10.479 C 29.376 10.297 29.257 10.115 29.141 9.923 C 29.075 9.813 29.022 9.714 28.976 9.622 C 28.878 9.44 28.803 9.246 28.752 9.046 C 28.752 9.027 28.737 9.011 28.718 9.009 C 28.709 9.007 28.699 9.007 28.69 9.009 C 28.688 9.009 28.685 9.012 28.682 9.013 C 28.68 9.014 28.675 9.017 28.671 9.019 L 28.677 9.009 C 24.905 11.148 23.624 15.106 23.508 17.087 C 22.001 17.187 20.56 17.724 19.374 18.629 C 19.25 18.528 19.121 18.433 18.986 18.345 C 18.644 17.185 18.629 15.958 18.944 14.791 C 17.559 15.44 16.328 16.362 15.329 17.496 L 15.322 17.496 C 14.727 16.765 14.769 14.357 14.803 13.853 C 14.627 13.922 14.459 14.008 14.302 14.111 C 13.776 14.474 13.285 14.882 12.834 15.329 C 12.32 15.833 11.85 16.379 11.43 16.96 L 11.43 16.962 L 11.43 16.959 C 10.465 18.284 9.78 19.781 9.415 21.364 L 9.395 21.46 C 9.367 21.588 9.265 22.229 9.247 22.368 C 9.247 22.379 9.245 22.389 9.244 22.4 C 9.112 23.062 9.031 23.732 9 24.405 L 9 24.48 C 9.014 32.023 14.982 38.304 22.744 38.944 C 30.507 39.584 37.486 34.371 38.817 26.939 C 38.842 26.751 38.863 26.565 38.885 26.376 C 39.194 23.9 38.86 21.389 37.911 19.071 L 37.912 19.073 Z  M 20.604 30.456 C 20.674 30.489 20.74 30.524 20.812 30.555 L 20.822 30.562 Q 20.713 30.511 20.604 30.456 Z  M 36.424 19.833 L 36.424 19.819 L 36.426 19.835 L 36.424 19.833 Z " fill="url(#_lgradient_45)"/><radialGradient id="_rgradient_60" fx="0.8653148476337492" fy="-0.12747499217653357" cx="0.5" cy="0.5" r="1" gradientTransform="matrix(29.997,0,0,23.605,9.003,15.392)" gradientUnits="userSpaceOnUse"><stop offset="12.9%" stop-opacity="1" style="stop-color:rgb(255,189,79)"/><stop offset="18.6%" stop-opacity="1" style="stop-color:rgb(255,172,49)"/><stop offset="24.7%" stop-opacity="1" style="stop-color:rgb(255,157,23)"/><stop offset="28.299999999999997%" stop-opacity="1" style="stop-color:rgb(255,152,14)"/><stop offset="40.300000000000004%" stop-opacity="1" style="stop-color:rgb(255,86,59)"/><stop offset="46.7%" stop-opacity="1" style="stop-color:rgb(255,55,80)"/><stop offset="71%" stop-opacity="1" style="stop-color:rgb(245,21,108)"/><stop offset="78.2%" stop-opacity="1" style="stop-color:rgb(235,8,120)"/><stop offset="86%" stop-opacity="1" style="stop-color:rgb(229,0,128)"/></radialGradient><path d=" M 37.912 19.073 C 37.26 17.553 35.936 15.911 34.9 15.392 C 35.639 16.778 36.152 18.267 36.421 19.805 L 36.421 19.819 L 36.423 19.834 C 37.581 23.042 37.414 26.558 35.956 29.649 C 34.235 33.225 30.07 36.89 23.549 36.71 C 16.504 36.517 10.297 31.454 9.138 24.824 C 8.927 23.778 9.138 23.248 9.245 22.398 C 9.1 23.059 9.019 23.73 9.003 24.405 L 9.003 24.48 C 9.017 32.023 14.985 38.304 22.747 38.944 C 30.51 39.584 37.489 34.371 38.82 26.939 C 38.845 26.751 38.866 26.566 38.888 26.376 C 39.198 23.901 38.863 21.39 37.914 19.071 L 37.912 19.073 Z " fill="url(#_rgradient_60)"/><radialGradient id="_rgradient_61" fx="0.47779103099476206" fy="0.3970480429638169" cx="0.5" cy="0.5" r="1" gradientTransform="matrix(29.997,0,0,23.605,9.003,15.392)" gradientUnits="userSpaceOnUse"><stop offset="30%" stop-opacity="1" style="stop-color:rgb(150,14,24)"/><stop offset="35.099999999999994%" stop-opacity="0.74" style="stop-color:rgb(177,25,39)"/><stop offset="43.5%" stop-opacity="0.343" style="stop-color:rgb(219,41,61)"/><stop offset="49.7%" stop-opacity="0.094" style="stop-color:rgb(245,51,75)"/><stop offset="53%" stop-opacity="0" style="stop-color:rgb(255,55,80)"/></radialGradient><path d=" M 37.912 19.073 C 37.26 17.553 35.936 15.911 34.9 15.392 C 35.639 16.778 36.152 18.267 36.421 19.805 L 36.421 19.819 L 36.423 19.834 C 37.581 23.042 37.414 26.558 35.956 29.649 C 34.235 33.225 30.07 36.89 23.549 36.71 C 16.504 36.517 10.297 31.454 9.138 24.824 C 8.927 23.778 9.138 23.248 9.245 22.398 C 9.1 23.059 9.019 23.73 9.003 24.405 L 9.003 24.48 C 9.017 32.023 14.985 38.304 22.747 38.944 C 30.51 39.584 37.489 34.371 38.82 26.939 C 38.845 26.751 38.866 26.566 38.888 26.376 C 39.198 23.901 38.863 21.39 37.914 19.071 L 37.912 19.073 Z " fill="url(#_rgradient_61)"/><radialGradient id="_rgradient_62" fx="0.514556314911478" fy="-0.2851982127578666" cx="0.5" cy="0.5" r="1" gradientTransform="matrix(7.201,0,0,11.84,23.505,9.007)" gradientUnits="userSpaceOnUse"><stop offset="13.200000000000001%" stop-opacity="1" style="stop-color:rgb(255,244,79)"/><stop offset="25.2%" stop-opacity="1" style="stop-color:rgb(255,220,62)"/><stop offset="50.6%" stop-opacity="1" style="stop-color:rgb(255,157,18)"/><stop offset="52.6%" stop-opacity="1" style="stop-color:rgb(255,152,14)"/></radialGradient><path d=" M 30.612 20.78 C 30.645 20.802 30.675 20.824 30.706 20.847 C 30.328 20.199 29.859 19.606 29.311 19.085 C 24.642 14.564 28.087 9.285 28.668 9.015 L 28.674 9.007 C 24.902 11.145 23.621 15.104 23.505 17.085 C 23.68 17.073 23.854 17.059 24.033 17.059 C 26.757 17.064 29.269 18.484 30.612 20.779 L 30.612 20.78 Z " fill="url(#_rgradient_62)"/><radialGradient id="_rgradient_63" fx="0.19318577901707923" fy="1.100628798177371" cx="0.5" cy="0.5" r="1" gradientTransform="matrix(13.34,0,0,14.161,17.271,17.058)" gradientUnits="userSpaceOnUse"><stop offset="35.3%" stop-opacity="1" style="stop-color:rgb(58,142,230)"/><stop offset="47.199999999999996%" stop-opacity="1" style="stop-color:rgb(92,121,240)"/><stop offset="66.9%" stop-opacity="1" style="stop-color:rgb(144,89,255)"/><stop offset="100%" stop-opacity="1" style="stop-color:rgb(193,57,230)"/></radialGradient><path d=" M 24.041 21.684 C 24.016 22.046 22.696 23.294 22.235 23.294 C 17.964 23.294 17.271 25.795 17.271 25.795 C 17.46 27.901 18.976 29.637 20.808 30.552 C 20.892 30.594 20.977 30.632 21.062 30.67 Q 21.282 30.764 21.503 30.844 C 22.131 31.06 22.79 31.183 23.457 31.209 C 30.943 31.549 32.392 22.542 26.99 19.927 C 28.264 19.767 29.555 20.07 30.611 20.779 C 29.268 18.484 26.756 17.063 24.032 17.058 C 23.853 17.058 23.679 17.072 23.504 17.084 C 21.997 17.184 20.556 17.721 19.369 18.626 C 19.598 18.814 19.857 19.064 20.401 19.584 C 21.42 20.556 24.034 21.563 24.04 21.681 L 24.041 21.684 Z " fill="url(#_rgradient_63)"/><radialGradient id="_rgradient_64" fx="0.568113163703946" fy="0.3604644760406459" cx="0.5" cy="0.5" r="1" gradientTransform="matrix(13.34,0,0,14.161,17.271,17.058)" gradientUnits="userSpaceOnUse"><stop offset="20.599999999999998%" stop-opacity="0" style="stop-color:rgb(144,89,255)"/><stop offset="27.800000000000004%" stop-opacity="0.064" style="stop-color:rgb(140,79,243)"/><stop offset="74.7%" stop-opacity="0.45" style="stop-color:rgb(119,22,168)"/><stop offset="97.5%" stop-opacity="0.6" style="stop-color:rgb(110,0,139)"/></radialGradient><path d=" M 24.041 21.684 C 24.016 22.046 22.696 23.294 22.235 23.294 C 17.964 23.294 17.271 25.795 17.271 25.795 C 17.46 27.901 18.976 29.637 20.808 30.552 C 20.892 30.594 20.977 30.632 21.062 30.67 Q 21.282 30.764 21.503 30.844 C 22.131 31.06 22.79 31.183 23.457 31.209 C 30.943 31.549 32.392 22.542 26.99 19.927 C 28.264 19.767 29.555 20.07 30.611 20.779 C 29.268 18.484 26.756 17.063 24.032 17.058 C 23.853 17.058 23.679 17.072 23.504 17.084 C 21.997 17.184 20.556 17.721 19.369 18.626 C 19.598 18.814 19.857 19.064 20.401 19.584 C 21.42 20.556 24.034 21.563 24.04 21.681 L 24.041 21.684 Z " fill="url(#_rgradient_64)"/><radialGradient id="_rgradient_65" fx="2.0849756304301774" fy="-0.9941940251240382" cx="0.5" cy="0.5" r="1" gradientTransform="matrix(3.657,0,0,3.554,15.323,14.791)" gradientUnits="userSpaceOnUse"><stop offset="0%" stop-opacity="1" style="stop-color:rgb(255,226,38)"/><stop offset="12.1%" stop-opacity="1" style="stop-color:rgb(255,219,39)"/><stop offset="29.5%" stop-opacity="1" style="stop-color:rgb(255,200,42)"/><stop offset="50.2%" stop-opacity="1" style="stop-color:rgb(255,169,48)"/><stop offset="73.2%" stop-opacity="1" style="stop-color:rgb(255,126,55)"/><stop offset="79.2%" stop-opacity="1" style="stop-color:rgb(255,113,57)"/></radialGradient><path d=" M 18.67 18.146 C 18.792 18.221 18.892 18.287 18.98 18.346 C 18.638 17.186 18.623 15.958 18.938 14.791 C 17.552 15.441 16.322 16.362 15.323 17.497 C 15.396 17.495 17.575 17.457 18.67 18.146 Z " fill="url(#_rgradient_65)"/><radialGradient id="_rgradient_66" fx="0.7969679468665285" fy="-0.40924947419380475" cx="0.5" cy="0.5" r="1" gradientTransform="matrix(28.122,0,0,22.858,9.06,13.859)" gradientUnits="userSpaceOnUse"><stop offset="11.3%" stop-opacity="1" style="stop-color:rgb(255,244,79)"/><stop offset="45.6%" stop-opacity="1" style="stop-color:rgb(255,152,14)"/><stop offset="62.2%" stop-opacity="1" style="stop-color:rgb(255,86,52)"/><stop offset="71.6%" stop-opacity="1" style="stop-color:rgb(255,54,71)"/><stop offset="90.4%" stop-opacity="1" style="stop-color:rgb(227,21,135)"/></radialGradient><path d=" M 9.136 24.825 C 10.295 31.454 16.502 36.519 23.546 36.711 C 30.067 36.889 34.233 33.224 35.953 29.65 C 37.411 26.559 37.578 23.042 36.421 19.835 L 36.421 19.821 C 36.421 19.81 36.418 19.804 36.421 19.807 L 36.423 19.831 C 36.956 23.199 35.187 26.461 32.421 28.671 L 32.412 28.69 C 27.022 32.941 21.865 31.254 20.823 30.566 Q 20.713 30.515 20.604 30.46 C 17.462 29.006 16.163 26.236 16.442 23.857 C 14.919 23.879 13.524 23.029 12.885 21.69 C 14.562 20.695 16.652 20.614 18.407 21.475 C 20.185 22.257 22.208 22.334 24.044 21.69 C 24.039 21.572 21.425 20.564 20.406 19.593 C 19.862 19.073 19.603 18.823 19.374 18.635 C 19.25 18.533 19.121 18.438 18.987 18.35 C 18.897 18.292 18.797 18.228 18.677 18.151 C 17.581 17.462 15.403 17.5 15.331 17.501 L 15.324 17.501 C 14.729 16.771 14.77 14.362 14.805 13.859 C 14.628 13.928 14.46 14.014 14.303 14.117 C 13.778 14.48 13.287 14.887 12.835 15.334 C 12.319 15.838 11.848 16.382 11.426 16.962 L 11.426 16.964 L 11.426 16.961 C 10.46 18.286 9.775 19.783 9.411 21.366 C 9.403 21.396 8.87 23.654 9.133 24.826 L 9.136 24.825 Z " fill="url(#_rgradient_66)"/><radialGradient id="_rgradient_67" fx="0.07991328711497325" fy="-0.10367639109864364" cx="0.5" cy="0.5" r="1" gradientTransform="matrix(9.614,0,0,19.665,26.901,9)" gradientUnits="userSpaceOnUse"><stop offset="0%" stop-opacity="1" style="stop-color:rgb(255,244,79)"/><stop offset="6%" stop-opacity="1" style="stop-color:rgb(255,232,71)"/><stop offset="16.8%" stop-opacity="1" style="stop-color:rgb(255,200,48)"/><stop offset="30.4%" stop-opacity="1" style="stop-color:rgb(255,152,14)"/><stop offset="35.6%" stop-opacity="1" style="stop-color:rgb(255,139,22)"/><stop offset="45.5%" stop-opacity="1" style="stop-color:rgb(255,103,42)"/><stop offset="56.99999999999999%" stop-opacity="1" style="stop-color:rgb(255,54,71)"/><stop offset="73.7%" stop-opacity="1" style="stop-color:rgb(227,21,135)"/></radialGradient><path d=" M 29.31 19.084 C 29.859 19.606 30.328 20.199 30.705 20.848 C 30.788 20.908 30.865 20.968 30.93 21.026 C 34.335 24.065 32.551 28.361 32.418 28.665 C 35.184 26.459 36.952 23.195 36.421 19.826 C 34.722 15.725 31.841 14.07 29.493 10.472 C 29.374 10.29 29.255 10.108 29.139 9.915 C 29.073 9.806 29.02 9.706 28.974 9.615 C 28.876 9.432 28.801 9.239 28.75 9.039 C 28.75 9.02 28.735 9.004 28.716 9.002 C 28.706 8.999 28.697 8.999 28.687 9.002 C 28.685 9.002 28.682 9.005 28.68 9.006 C 28.678 9.007 28.673 9.01 28.669 9.012 C 28.088 9.278 24.643 14.561 29.312 19.078 L 29.31 19.084 Z " fill="url(#_rgradient_67)"/><radialGradient id="_rgradient_68" fx="0.17542808187812242" fy="-0.4210618708735907" cx="0.5" cy="0.5" r="1" gradientTransform="matrix(12.195,0,0,11.589,20.809,19.89)" gradientUnits="userSpaceOnUse"><stop offset="13.700000000000001%" stop-opacity="1" style="stop-color:rgb(255,244,79)"/><stop offset="48%" stop-opacity="1" style="stop-color:rgb(255,152,14)"/><stop offset="59.199999999999996%" stop-opacity="1" style="stop-color:rgb(255,86,52)"/><stop offset="65.5%" stop-opacity="1" style="stop-color:rgb(255,54,71)"/><stop offset="90.4%" stop-opacity="1" style="stop-color:rgb(227,21,135)"/></radialGradient><path d=" M 30.93 21.028 C 30.865 20.97 30.787 20.91 30.705 20.849 C 30.674 20.827 30.644 20.805 30.612 20.783 C 29.555 20.074 28.265 19.771 26.99 19.932 C 32.392 22.547 30.943 31.551 23.457 31.214 C 22.79 31.187 22.132 31.064 21.503 30.848 Q 21.282 30.769 21.062 30.674 C 20.977 30.636 20.892 30.599 20.809 30.557 L 20.819 30.563 C 21.863 31.253 27.019 32.939 32.409 28.687 L 32.417 28.668 C 32.552 28.364 34.336 24.068 30.929 21.029 L 30.93 21.028 Z " fill="url(#_rgradient_68)"/><radialGradient id="_rgradient_69" fx="1.5617708333333333" fy="-0.45094409245765" cx="0.5" cy="0.5" r="1" gradientTransform="matrix(11.16,0,0,9.677,12.881,20.874)" gradientUnits="userSpaceOnUse"><stop offset="9.4%" stop-opacity="1" style="stop-color:rgb(255,244,79)"/><stop offset="23.1%" stop-opacity="1" style="stop-color:rgb(255,225,65)"/><stop offset="50.9%" stop-opacity="1" style="stop-color:rgb(255,175,30)"/><stop offset="62.6%" stop-opacity="1" style="stop-color:rgb(255,152,14)"/></radialGradient><path d=" M 17.271 25.793 C 17.271 25.793 17.964 23.291 22.235 23.291 C 22.696 23.291 24.017 22.044 24.041 21.682 C 22.205 22.326 20.181 22.249 18.403 21.468 C 16.649 20.606 14.559 20.687 12.881 21.682 C 13.521 23.022 14.915 23.871 16.439 23.849 C 16.161 26.226 17.459 28.997 20.6 30.452 C 20.671 30.485 20.736 30.52 20.809 30.551 C 18.975 29.634 17.46 27.899 17.271 25.794 L 17.271 25.793 Z " fill="url(#_rgradient_69)"/><linearGradient id="_lgradient_46" x1="0.8874812099454991" y1="0.15079804899746907" x2="0.19146185404709604" y2="0.8469445549426198" gradientTransform="matrix(29.997,0,0,29.993,9.002,9.007)" gradientUnits="userSpaceOnUse"><stop offset="16.7%" stop-opacity="0.8" style="stop-color:rgb(255,244,79)"/><stop offset="26.6%" stop-opacity="0.634" style="stop-color:rgb(255,244,79)"/><stop offset="48.9%" stop-opacity="0.217" style="stop-color:rgb(255,244,79)"/><stop offset="60%" stop-opacity="0" style="stop-color:rgb(255,244,79)"/></linearGradient><path d=" M 37.913 19.073 C 37.261 17.553 35.937 15.911 34.901 15.392 C 35.64 16.778 36.153 18.267 36.421 19.805 L 36.424 19.829 C 34.726 15.732 31.848 14.077 29.496 10.479 C 29.377 10.297 29.258 10.115 29.142 9.923 C 29.076 9.813 29.023 9.714 28.977 9.622 C 28.879 9.44 28.804 9.246 28.753 9.046 C 28.753 9.027 28.738 9.011 28.719 9.009 C 28.709 9.007 28.7 9.007 28.69 9.009 C 28.688 9.009 28.685 9.012 28.683 9.013 C 28.681 9.014 28.676 9.017 28.672 9.019 L 28.678 9.009 C 24.906 11.148 23.625 15.106 23.509 17.087 C 23.684 17.075 23.858 17.061 24.037 17.061 C 26.761 17.066 29.273 18.487 30.616 20.782 C 29.56 20.073 28.269 19.77 26.995 19.93 C 32.397 22.545 30.947 31.55 23.462 31.212 C 22.795 31.186 22.136 31.063 21.508 30.847 Q 21.287 30.767 21.067 30.673 C 20.982 30.635 20.897 30.597 20.813 30.555 L 20.824 30.562 Q 20.714 30.511 20.605 30.456 C 20.675 30.489 20.741 30.524 20.813 30.555 C 18.979 29.638 17.465 27.903 17.276 25.798 C 17.276 25.798 17.969 23.297 22.24 23.297 C 22.701 23.297 24.022 22.049 24.046 21.687 C 24.04 21.569 21.426 20.562 20.407 19.59 C 19.863 19.07 19.604 18.82 19.375 18.632 C 19.252 18.531 19.122 18.436 18.988 18.348 C 18.646 17.188 18.631 15.961 18.946 14.794 C 17.56 15.443 16.329 16.365 15.331 17.499 L 15.324 17.499 C 14.729 16.768 14.77 14.36 14.805 13.856 C 14.628 13.925 14.46 14.011 14.303 14.114 C 13.778 14.477 13.287 14.885 12.835 15.332 C 12.321 15.836 11.852 16.382 11.431 16.963 L 11.431 16.965 L 11.431 16.962 C 10.466 18.287 9.781 19.784 9.417 21.367 L 9.396 21.463 C 9.368 21.591 9.241 22.241 9.223 22.38 L 9.223 22.38 C 9.107 23.051 9.033 23.728 9.002 24.408 L 9.002 24.483 C 9.015 32.026 14.983 38.307 22.746 38.947 C 30.508 39.587 37.487 34.374 38.818 26.942 C 38.844 26.754 38.864 26.568 38.887 26.379 C 39.196 23.903 38.861 21.392 37.912 19.074 L 37.913 19.073 Z  M 36.423 19.82 L 36.426 19.835 L 36.423 19.82 Z " fill="url(#_lgradient_46)"/></g></svg>