<?xml version="1.0" encoding="UTF-8" standalone="no"?>
<svg
   xmlns:dc="http://purl.org/dc/elements/1.1/"
   xmlns:cc="http://creativecommons.org/ns#"
   xmlns:rdf="http://www.w3.org/1999/02/22-rdf-syntax-ns#"
   xmlns:svg="http://www.w3.org/2000/svg"
   xmlns="http://www.w3.org/2000/svg"
   xmlns:xlink="http://www.w3.org/1999/xlink"
   xmlns:sodipodi="http://sodipodi.sourceforge.net/DTD/sodipodi-0.dtd"
   xmlns:inkscape="http://www.inkscape.org/namespaces/inkscape"
   inkscape:version="1.0.1 (3bc2e813f5, 2020-09-07)"
   sodipodi:docname="tabbar.svg"
   version="1.1"
   height="240"
   width="225"
   id="svg2">
  <metadata
     id="metadata97">
    <rdf:RDF>
      <cc:Work
         rdf:about="">
        <dc:format>image/svg+xml</dc:format>
        <dc:type
           rdf:resource="http://purl.org/dc/dcmitype/StillImage" />
        <dc:title />
      </cc:Work>
    </rdf:RDF>
  </metadata>
  <sodipodi:namedview
     inkscape:current-layer="svg2"
     inkscape:window-maximized="1"
     inkscape:window-y="35"
     inkscape:window-x="0"
     inkscape:cy="95.219937"
     inkscape:cx="66.225801"
     inkscape:zoom="1.0050073"
     showgrid="false"
     id="namedview95"
     inkscape:window-height="709"
     inkscape:window-width="1366"
     inkscape:pageshadow="2"
     inkscape:pageopacity="0"
     guidetolerance="10"
     gridtolerance="10"
     objecttolerance="10"
     borderopacity="1"
     inkscape:document-rotation="0"
     bordercolor="#666666"
     pagecolor="#ffffff" />
  <defs
     id="defs79">
    <linearGradient
       id="linearGradient927">
      <stop
         offset="0"
         style="stop-color:#1cd8d2;stop-opacity:1"
         id="stop923" />
      <stop
         offset="1"
         style="stop-color:#93edc7;stop-opacity:0.98823529"
         id="stop925" />
    </linearGradient>
    <linearGradient
       id="linearGradient925">
      <stop
         id="stop920"
         style="stop-color:#5800e2;stop-opacity:1"
         offset="0" />
      <stop
         id="stop922"
         style="stop-color:#ff00e6;stop-opacity:1"
         offset="1" />
    </linearGradient>
    <linearGradient
       xlink:href="#linearGradient991"
       gradientUnits="userSpaceOnUse"
       gradientTransform="translate(364.98305,-121.3886)"
       y2="39.016"
       y1="39.016"
       x2="82"
       x1="26"
       id="linearGradient1016" />
    <linearGradient
       id="linearGradient991">
      <stop
         offset="0"
         style="stop-color:#a22f66;stop-opacity:1"
         id="stop987" />
      <stop
         offset="1"
         style="stop-color:#1b77a0;stop-opacity:1"
         id="stop989" />
    </linearGradient>
    <linearGradient
       xlink:href="#linearGradient927"
       gradientUnits="userSpaceOnUse"
       y2="363.35999"
       y1="269.35999"
       x2="407"
       x1="407"
       id="linearGradient908" />
    <linearGradient
       xlink:href="#linearGradient927"
       gradientUnits="userSpaceOnUse"
       y2="363.362"
       y1="363.362"
       x2="126.998"
       x1="32.998001"
       id="linearGradient910" />
    <linearGradient
       xlink:href="#linearGradient927"
       gradientUnits="userSpaceOnUse"
       y2="363.35999"
       y1="269.35999"
       x2="407"
       x1="407"
       id="linearGradient912" />
    <linearGradient
       xlink:href="#linearGradient927"
       gradientUnits="userSpaceOnUse"
       y2="363.35999"
       y1="269.35999"
       x2="218"
       x1="218"
       id="linearGradient914" />
    <linearGradient
       xlink:href="#linearGradient927"
       gradientUnits="userSpaceOnUse"
       y2="358.362"
       y1="358.362"
       x2="126.998"
       x1="32.998001"
       id="linearGradient916" />
    <linearGradient
       xlink:href="#linearGradient927"
       gradientUnits="userSpaceOnUse"
       y2="363.35999"
       y1="269.35999"
       x2="218"
       x1="218"
       id="linearGradient918" />
    <linearGradient
       xlink:href="#linearGradient927"
       gradientUnits="userSpaceOnUse"
       y2="432.35999"
       y1="432.35999"
       x2="363"
       x1="269"
       id="linearGradient920" />
    <linearGradient
       xlink:href="#linearGradient927"
       gradientUnits="userSpaceOnUse"
       y2="358.35999"
       y1="358.35999"
       x2="127"
       x1="33"
       id="linearGradient922" />
    <linearGradient
       xlink:href="#linearGradient927"
       gradientUnits="userSpaceOnUse"
       y2="432.35999"
       y1="432.35999"
       x2="363"
       x1="269"
       id="linearGradient924" />
    <linearGradient
       xlink:href="#linearGradient927"
       gradientUnits="userSpaceOnUse"
       y2="227.36"
       y1="227.36"
       x2="370"
       x1="276"
       id="linearGradient932" />
    <linearGradient
       xlink:href="#linearGradient927"
       gradientUnits="userSpaceOnUse"
       y2="362.35999"
       y1="362.35999"
       x2="127"
       x1="33"
       id="linearGradient934" />
    <linearGradient
       xlink:href="#linearGradient927"
       gradientUnits="userSpaceOnUse"
       y2="226.36"
       y1="226.36"
       x2="370"
       x1="276"
       id="linearGradient936" />
  </defs>
  <rect
     y="-40"
     x="0"
     height="40"
     width="40"
     style="opacity:1;fill:#ff0000"
     id="hint-tile-center" />
  <g
     transform="matrix(1,0,0,0.99998568,36.00001,-136.35495)"
     style="opacity:0.8"
     id="south-active-tab-top">
    <path
       d="m 40,359.36218 h 80 v 3 H 40 Z"
       style="opacity:1;fill:#9bbfbf;fill-opacity:1"
       id="rect3003" />
  </g>
  <g
     transform="matrix(1,0,0,0.99925135,36.00001,-136.08883)"
     style="opacity:0.8"
     id="south-active-tab-topleft">
    <rect
       y="359.36"
       x="30"
       height="3"
       width="10"
       style="opacity:0.001"
       id="rect3073-5" />
    <path
       d="m 270.5,433.36133 a 1.5,1.5 0 0 0 -1.5,1.5 1.5,1.5 0 0 0 1.5,1.5 h 5.5 v -2.9961 z"
       transform="matrix(1,0,0,1.0007492,-236.00001,-74.326798)"
       style="opacity:1;fill:#9bbfbf;fill-opacity:1"
       id="rect3542" />
  </g>
  <g
     transform="matrix(1,0,0,0.99925135,36.00001,-136.08883)"
     style="opacity:0.8"
     id="south-active-tab-topright">
    <rect
       y="359.36"
       x="120"
       height="3"
       width="10"
       style="opacity:0.001"
       id="rect3073-45" />
    <path
       d="m 361.5,433.36133 a 1.5,1.5 0 0 0 -0.0527,0.002 c -0.10346,0 -5.44726,-2e-5 -5.44727,0.002 v 2.99805 h 5.5 v -0.002 a 1.5,1.5 0 0 0 1.5,-1.5 1.5,1.5 0 0 0 -1.5,-1.5 z"
       transform="matrix(1,0,0,1.0007492,-236.00001,-74.326798)"
       style="opacity:1;fill:#9bbfbf;fill-opacity:1"
       id="rect3542-9" />
  </g>
  <rect
     y="224"
     x="66"
     height="12"
     width="10"
     style="opacity:0.001"
     id="south-active-tab-left" />
  <rect
     y="224"
     x="76"
     height="12"
     width="80"
     style="opacity:0.001"
     id="south-active-tab-center" />
  <rect
     y="224"
     x="156"
     height="12"
     width="10"
     style="opacity:0.00100002"
     id="south-active-tab-right" />
  <rect
     y="236"
     x="156"
     height="4"
     width="10"
     style="opacity:0.001"
     id="south-active-tab-bottomright" />
  <rect
     y="236"
     x="76"
     height="4"
     width="80"
     style="opacity:0.001"
     id="south-active-tab-bottom" />
  <rect
     y="236"
     x="66"
     height="4"
     width="10"
     style="opacity:0.001"
     id="south-active-tab-bottomleft" />
  <rect
     y="227"
     x="66"
     height="5"
     width="6"
     style="opacity:1;fill:#ff0000"
     id="south-active-tab-hint-left-margin" />
  <rect
     y="227"
     x="160"
     height="5"
     width="6"
     style="opacity:1;fill:#ff0000"
     id="south-active-tab-hint-right-margin" />
  <rect
     y="223"
     x="114"
     height="8"
     width="5"
     style="opacity:1;fill:#ff0000"
     id="south-active-tab-hint-top-margin" />
  <rect
     y="236"
     x="114"
     height="4"
     width="5"
     style="opacity:1;fill:#ff0000"
     id="south-active-tab-hint-bottom-margin" />
  <rect
     transform="rotate(-90)"
     y="209"
     x="-155.7"
     height="12"
     width="10"
     style="opacity:0.001"
     id="east-active-tab-bottom" />
  <rect
     transform="rotate(-90)"
     y="209"
     x="-145.7"
     height="12"
     width="80"
     style="opacity:0.001"
     id="east-active-tab-center" />
  <rect
     transform="rotate(-90)"
     y="209"
     x="-66"
     height="12"
     width="10"
     style="opacity:0.001"
     id="east-active-tab-top" />
  <rect
     transform="rotate(-90)"
     y="221"
     x="-66"
     height="4"
     width="10"
     style="opacity:0.001"
     id="east-active-tab-topright" />
  <rect
     transform="rotate(-90)"
     y="221"
     x="-145.7"
     height="4"
     width="80"
     style="opacity:0.001"
     id="east-active-tab-right" />
  <rect
     transform="rotate(-90)"
     y="221"
     x="-155.7"
     height="4"
     width="10"
     style="opacity:0.001"
     id="east-active-tab-bottomright" />
  <rect
     transform="rotate(-90)"
     y="212"
     x="-156"
     height="5"
     width="6"
     style="opacity:1;fill:#ff0000"
     id="east-active-tab-hint-bottom-margin" />
  <rect
     transform="rotate(-90)"
     y="212"
     x="-62"
     height="5"
     width="6"
     style="opacity:1;fill:#ff0000"
     id="east-active-tab-hint-top-margin" />
  <g
     transform="rotate(90,272.18011,298.18231)"
     style="opacity:0.8"
     id="east-active-tab-left">
    <path
       d="m 40,359.36218 h 80 v 3 H 40 Z"
       style="opacity:1;fill:#9bbfbf;fill-opacity:1"
       id="rect3003-5-6" />
  </g>
  <rect
     transform="rotate(-90)"
     y="208"
     x="-102"
     height="8"
     width="5"
     style="opacity:1;fill:#ff0000"
     id="east-active-tab-hint-left-margin" />
  <rect
     transform="rotate(-90)"
     y="221"
     x="-102"
     height="4"
     width="5"
     style="opacity:1;fill:#ff0000"
     id="east-active-tab-hint-right-margin" />
  <rect
     transform="rotate(90)"
     y="-16"
     x="56"
     height="12"
     width="10"
     style="opacity:0.001"
     id="west-active-tab-top" />
  <rect
     transform="rotate(90)"
     y="-16"
     x="66"
     height="12"
     width="80"
     style="opacity:0.001"
     id="west-active-tab-center" />
  <rect
     transform="rotate(90)"
     y="-16"
     x="146"
     height="12"
     width="10"
     style="opacity:0.001"
     id="west-active-tab-bottom" />
  <rect
     transform="rotate(90)"
     y="-4"
     x="146"
     height="4"
     width="10"
     style="opacity:0.001"
     id="west-active-tab-bottomleft" />
  <rect
     transform="rotate(90)"
     y="-4"
     x="66"
     height="4"
     width="80"
     style="opacity:0.001"
     id="west-active-tab-left" />
  <rect
     transform="rotate(90)"
     y="-4"
     x="56"
     height="4"
     width="10"
     style="opacity:0.001"
     id="west-active-tab-topleft" />
  <rect
     transform="rotate(90)"
     y="-13"
     x="56"
     height="5"
     width="6"
     style="opacity:1;fill:#ff0000"
     id="west-active-tab-hint-top-margin" />
  <rect
     transform="rotate(90)"
     y="-13"
     x="150"
     height="5"
     width="6"
     style="opacity:1;fill:#ff0000"
     id="west-active-tab-hint-bottom-margin" />
  <g
     transform="rotate(90,175.17999,201.18219)"
     style="opacity:0.8"
     id="west-active-tab-right">
    <path
       d="m 40,359.36218 h 80 v 3 H 40 Z"
       style="opacity:1;fill:#9bbfbf;fill-opacity:1"
       id="rect3003-5" />
  </g>
  <g
     transform="matrix(0,1,-0.99926566,0,376.09609,26.002195)"
     style="opacity:0.8"
     id="west-active-tab-topright">
    <rect
       y="359.36"
       x="30"
       height="3"
       width="10"
       style="opacity:0.001"
       id="rect3073-5-5" />
    <path
       d="m 215.5,269.36133 a 1.5,1.5 0 0 0 -1.5,1.5 c 0,0 0.002,5.50001 0,5.5 h 2.99805 l 0.002,-5.5 a 1.5,1.5 0 0 0 -1.5,-1.5 z"
       transform="matrix(0,-1.0007349,1,0,-236.36218,576.51945)"
       style="opacity:1;fill:#9bbfbf;fill-opacity:1"
       id="rect3542-0" />
  </g>
  <g
     transform="matrix(0,1,-0.99926566,0,376.09609,26.002195)"
     style="opacity:0.8"
     id="west-active-tab-bottomright">
    <rect
       y="359.36"
       x="120"
       height="3"
       width="10"
       style="opacity:0.001"
       id="rect3073-45-07" />
    <path
       d="m 214,356.36133 c 0.002,10e-6 0,5.5 0,5.5 a 1.5,1.5 0 0 0 1.5,1.5 1.5,1.5 0 0 0 1.5,-1.5 l -0.002,-5.5 z"
       transform="matrix(0,-1.0007349,1,0,-236.36218,576.51945)"
       style="opacity:1;fill:#9bbfbf;fill-opacity:1"
       id="rect3542-9-4" />
  </g>
  <rect
     transform="rotate(90)"
     y="-17"
     x="97"
     height="8"
     width="5"
     style="opacity:1;fill:#ff0000"
     id="west-active-tab-hint-right-margin" />
  <rect
     transform="rotate(90)"
     y="-4"
     x="97"
     height="4"
     width="5"
     style="opacity:1;fill:#ff0000"
     id="west-active-tab-hint-left-margin" />
  <rect
     transform="scale(-1)"
     y="-16"
     x="-173"
     height="12"
     width="10"
     style="opacity:0.001"
     id="north-active-tab-right" />
  <rect
     transform="scale(-1)"
     y="-16"
     x="-163"
     height="12"
     width="80"
     style="opacity:0.001"
     id="north-active-tab-center" />
  <rect
     transform="scale(-1)"
     y="-16"
     x="-83"
     height="12"
     width="10"
     style="opacity:0.001"
     id="north-active-tab-left" />
  <rect
     transform="scale(-1)"
     y="-4"
     x="-83"
     height="4"
     width="10"
     style="opacity:0.001"
     id="north-active-tab-topleft" />
  <rect
     transform="scale(-1)"
     y="-4"
     x="-163"
     height="4"
     width="80"
     style="opacity:0.001"
     id="north-active-tab-top" />
  <rect
     transform="scale(-1)"
     y="-4"
     x="-173"
     height="4"
     width="10"
     style="opacity:0.001"
     id="north-active-tab-topright" />
  <rect
     transform="scale(-1)"
     y="-13"
     x="-173"
     height="5"
     width="6"
     style="opacity:1;fill:#ff0000"
     id="north-focus-hint-right-margin" />
  <rect
     transform="scale(-1)"
     y="-13"
     x="-79"
     height="5"
     width="6"
     style="opacity:1;fill:#ff0000"
     id="north-focus-hint-left-margin" />
  <g
     transform="translate(43,-345.36012)"
     style="opacity:0.8"
     id="north-active-tab-bottom">
    <path
       d="m 40,359.36218 h 80 v 3 H 40 Z"
       style="opacity:1;fill:#9bbfbf;fill-opacity:1"
       id="rect3003-6" />
  </g>
  <rect
     transform="scale(-1)"
     y="-17"
     x="-119"
     height="8"
     width="5"
     style="opacity:1;fill:#ff0000"
     id="north-focus-hint-bottom-margin" />
  <rect
     transform="scale(-1)"
     y="-4"
     x="-119"
     height="4"
     width="5"
     style="opacity:1;fill:#ff0000"
     id="north-focus-hint-top-margin" />
  <g
     transform="matrix(1,0,0,0.99926566,43,-345.09403)"
     style="opacity:0.8"
     id="north-active-tab-bottomleft">
    <rect
       y="359.36"
       x="30"
       height="3"
       width="10"
       style="opacity:0.001"
       id="rect3073-5-7" />
    <path
       d="m 277.5,224.36133 a 1.5,1.5 0 0 0 -1.5,1.5 1.5,1.5 0 0 0 1.5,1.5 c 0,0 5.50001,-4.2e-4 5.5,0 v -3 z"
       transform="matrix(1,0,0,1.0007349,-243,134.83306)"
       style="opacity:1;fill:#9bbfbf;fill-opacity:1"
       id="rect3542-3" />
  </g>
  <g
     transform="matrix(1,0,0,0.99927074,-200,-213.19212)"
     style="opacity:0.8"
     id="north-active-tab-bottomright">
    <rect
       y="227.36"
       x="363"
       height="3"
       width="10"
       style="opacity:0.001"
       id="rect3073-45-6" />
    <rect
       y="227.36"
       x="363"
       height="3"
       width="10"
       style="opacity:0.001"
       id="rect3073-45-0" />
    <path
       d="m 368.5,224.36133 c 0,0 -5.5,0.002 -5.5,0.004 v 2.9961 h 5.5 a 1.5,1.5 0 0 0 1.5,-1.5 1.5,1.5 0 0 0 -1.5,-1.5 z"
       transform="matrix(1,0,0,1.0007298,0,2.8342025)"
       style="opacity:1;fill:#9bbfbf;fill-opacity:1"
       id="rect3542-9-8" />
  </g>
  <g
     transform="matrix(0,1,-0.99926566,0,570.09633,26.002195)"
     style="opacity:0.8"
     id="east-active-tab-topleft">
    <rect
       y="359.36"
       x="30"
       height="3"
       width="10"
       style="opacity:0.001"
       id="rect3073-5-5-1" />
    <path
       d="m 409.5,269.36133 a 1.5,1.5 0 0 0 -1.5,1.5 c 0,0 0.002,5.50001 0,5.5 h 2.99805 l 0.002,-5.5 a 1.5,1.5 0 0 0 -1.5,-1.5 z"
       transform="matrix(0,-1.0007349,1,0,-236.36218,770.66226)"
       style="opacity:1;fill:#9bbfbf;fill-opacity:1"
       id="rect3542-0-7" />
  </g>
  <g
     transform="matrix(0,1,-0.99926566,0,570.09633,26.002195)"
     style="opacity:0.8"
     id="east-active-tab-bottomleft">
    <rect
       y="359.36"
       x="120"
       height="3"
       width="10"
       style="opacity:0.001"
       id="rect3073-45-07-7" />
    <path
       d="m 408,356.36133 v 5.5 a 1.5,1.5 0 0 0 1.5,1.5 1.5,1.5 0 0 0 1.5,-1.5 l -0.002,-5.5 z"
       transform="matrix(0,-1.0007349,1,0,-236.36218,770.66226)"
       style="opacity:1;fill:#9bbfbf;fill-opacity:1"
       id="rect3542-9-4-6" />
  </g>
  <rect
     y="-3"
     x="45"
     height="3"
     width="3"
     style="opacity:1;fill:#ff0000"
     id="hint-stretch-borders" />
</svg>
