<?xml version="1.0" encoding="UTF-8" standalone="no"?>
<!-- Generator: Gravit.io -->

<svg
   style="isolation:isolate"
   viewBox="0 0 45 25"
   width="45"
   height="25"
   version="1.1"
   id="svg11496"
   sodipodi:docname="switch-insensitive.svg"
   inkscape:version="1.3.2 (091e20ef0f, 2023-11-25)"
   xmlns:inkscape="http://www.inkscape.org/namespaces/inkscape"
   xmlns:sodipodi="http://sodipodi.sourceforge.net/DTD/sodipodi-0.dtd"
   xmlns="http://www.w3.org/2000/svg"
   xmlns:svg="http://www.w3.org/2000/svg">
  <defs
     id="defs11500" />
  <sodipodi:namedview
     id="namedview11498"
     pagecolor="#ffffff"
     bordercolor="#000000"
     borderopacity="0.25"
     inkscape:showpageshadow="2"
     inkscape:pageopacity="0.0"
     inkscape:pagecheckerboard="0"
     inkscape:deskcolor="#d1d1d1"
     showgrid="false"
     inkscape:zoom="25.28"
     inkscape:cx="23.18038"
     inkscape:cy="10.917722"
     inkscape:window-width="2560"
     inkscape:window-height="1372"
     inkscape:window-x="0"
     inkscape:window-y="0"
     inkscape:window-maximized="1"
     inkscape:current-layer="svg11496"
     showguides="true">
    <sodipodi:guide
       position="-2.4894187,23.489566"
       orientation="0,-1"
       id="guide8"
       inkscape:locked="false" />
  </sodipodi:namedview>
  <path
     style="fill:#000000;fill-opacity:0.2;stroke-width:1.17261"
     d="M 0.02441375,12.464074 A 11.875,10.45 0 0 0 0,13.108606 a 11.875,10.45 0 0 0 11.875,10.45 h 9.375 2.5 9.375 A 11.875,10.45 0 0 0 45,13.108606 11.875,10.45 0 0 0 44.975587,12.653138 11.875,10.45 0 0 1 33.125,22.458606 H 23.75 21.25 11.875 A 11.875,10.45 0 0 1 0.02441375,12.464074 Z"
     id="path900" />
  <path
     style="display:inline;fill:#f2f2f2;fill-opacity:1;stroke-width:1.17261"
     d="M 11.875,1.5586059 A 11.875,10.45 0 0 0 0,12.008606 a 11.875,10.45 0 0 0 11.875,10.45 h 9.375 2.5 9.375 A 11.875,10.45 0 0 0 45,12.008606 11.875,10.45 0 0 0 33.125,1.5586059 h -9.375 -2.5 z"
     id="path872"
     inkscape:connector-curvature="0" />
  <path
     style="isolation:isolate;fill:#000000;fill-opacity:0.15000001;stroke-width:1.17261"
     d="M 11.875,1.5586059 A 11.875,10.45 0 0 0 0,12.008606 11.875,10.45 0 0 0 0.02441375,12.464074 11.875,10.45 0 0 1 11.875,2.658606 h 9.375 2.5 9.375 A 11.875,10.45 0 0 1 44.975586,12.653138 11.875,10.45 0 0 0 45,12.008606 11.875,10.45 0 0 0 33.125,1.5586059 h -9.375 -2.5 z"
     id="path902" />
</svg>
