<?xml version="1.0" encoding="UTF-8" standalone="no"?>
<!-- Generator: Gravit.io -->

<svg
   style="isolation:isolate"
   viewBox="0 0 45 25"
   width="45"
   height="25"
   version="1.1"
   id="svg11496"
   sodipodi:docname="switch-off.svg"
   inkscape:version="1.3.2 (091e20ef0f, 2023-11-25)"
   xmlns:inkscape="http://www.inkscape.org/namespaces/inkscape"
   xmlns:sodipodi="http://sodipodi.sourceforge.net/DTD/sodipodi-0.dtd"
   xmlns="http://www.w3.org/2000/svg"
   xmlns:svg="http://www.w3.org/2000/svg">
  <defs
     id="defs11500" />
  <sodipodi:namedview
     id="namedview11498"
     pagecolor="#ffffff"
     bordercolor="#000000"
     borderopacity="0.25"
     inkscape:showpageshadow="2"
     inkscape:pageopacity="0.0"
     inkscape:pagecheckerboard="0"
     inkscape:deskcolor="#d1d1d1"
     showgrid="false"
     inkscape:zoom="35.751319"
     inkscape:cx="30.460415"
     inkscape:cy="13.006513"
     inkscape:window-width="2560"
     inkscape:window-height="1372"
     inkscape:window-x="0"
     inkscape:window-y="0"
     inkscape:window-maximized="1"
     inkscape:current-layer="svg11496"
     showguides="true">
    <sodipodi:guide
       position="1.5244193,16.315006"
       orientation="1,0"
       id="guide36915"
       inkscape:locked="false" />
    <sodipodi:guide
       position="-17.866938,23.495084"
       orientation="0,-1"
       id="guide1"
       inkscape:locked="false" />
  </sodipodi:namedview>
  <path
     style="isolation:isolate;fill:#000000;fill-opacity:0.1;stroke-width:1.17261"
     d="M 0.024414,12.489218 A 11.875,10.45 0 0 0 0,13.13375 a 11.875,10.45 0 0 0 11.875,10.45 h 9.375 2.5 9.375 A 11.875,10.45 0 0 0 45,13.13375 11.875,10.45 0 0 0 44.97559,12.678282 11.875,10.45 0 0 1 33.125003,22.48375 h -9.375 -2.5 -9.375 A 11.875,10.45 0 0 1 0.024414,12.489218 Z"
     id="path900" />
  <path
     style="display:inline;isolation:isolate;fill:#000000;fill-opacity:0.1;stroke-width:1.17261;opacity:1"
     d="M 11.875,1.5837495 A 11.875,10.45 0 0 0 0,12.03375 a 11.875,10.45 0 0 0 11.875,10.45 h 9.375 2.5 9.375 A 11.875,10.45 0 0 0 45,12.03375 11.875,10.45 0 0 0 33.125,1.5837495 h -9.375 -2.5 z"
     id="path872"
     inkscape:connector-curvature="0" />
  <path
     style="isolation:isolate;fill:#000000;fill-opacity:0.1;stroke-width:1.17261"
     d="M 11.875,1.5837495 A 11.875,10.45 0 0 0 0,12.03375 11.875,10.45 0 0 0 0.024414,12.489218 11.875,10.45 0 0 1 11.875,2.6837495 h 9.375 2.5 9.375 A 11.875,10.45 0 0 1 44.975586,12.678282 11.875,10.45 0 0 0 45,12.03375 11.875,10.45 0 0 0 33.125,1.5837495 h -9.375 -2.5 z"
     id="path902" />
</svg>
