/* XPM */
static char *close_active[] = {
/* columns rows colors chars-per-pixel */
"28 32 24 1 ",
"  c #E74C3C",
". c #E74F3F",
"X c #E75040",
"o c #E96D60",
"O c #E86D61",
"+ c #E96D61",
"@ c #E86E61",
"# c #EBA199",
"$ c #EBA29B",
"% c #EBADA7",
"& c #EBAEA8",
"* c #ECAFA9",
"= c #EBB1AB",
"- c #EBB3AD",
"; c #ECC7C3",
": c #ECC9C5",
"> c #EDCAC6",
", c #EDD1CE",
"< c #EDD1CF",
"1 c #EDD2CF",
"2 c #EDD3D0",
"3 c #EDD4D1",
"4 c #EEEEEE",
"5 c #EFEFEF",
/* pixels */
"5555555555555555555555555555",
"4444444444444444444444444444",
"4444444444444444444444444444",
"4444444444444444444444444444",
"4444444444444444444444444444",
"4444444444444444444444444444",
"4444444444444444444444444444",
"4444444444444444444444444444",
"444444444444,%$%<44444444444",
"4444444444;o     +:444444444",
"444444444=.       X=44444444",
"44444444;.         X:4444444",
"44444444o           O4444444",
"4444444,             2444444",
"4444444%             &444444",
"4444444#             #444444",
"4444444%             *444444",
"4444444<             3444444",
"44444444+           @4444444",
"44444444:X         X>4444444",
"444444444=X       X-44444444",
"4444444444:O     @>444444444",
"4444444444441*$*244444444444",
"4444444444444444444444444444",
"4444444444444444444444444444",
"4444444444444444444444444444",
"4444444444444444444444444444",
"4444444444444444444444444444",
"4444444444444444444444444444",
"4444444444444444444444444444",
"4444444444444444444444444444",
"4444444444444444444444444444"
};
