/* XPM */
static char *close_pressed[] = {
/* columns rows colors chars-per-pixel */
"28 32 33 1 ",
"  c #9F1D2B",
". c #A01E2B",
"X c #B92E31",
"o c #C93835",
"O c #CA3935",
"+ c #CA3936",
"@ c #DA4439",
"# c #DB4439",
"$ c #E54B3C",
"% c #E74C3C",
"& c #E74F3F",
"* c #E75040",
"= c #E96D60",
"- c #E86D61",
"; c #E96D61",
": c #E86E61",
"> c #EBA199",
", c #EBA29B",
"< c #EBADA7",
"1 c #EBAEA8",
"2 c #ECAFA9",
"3 c #EBB1AB",
"4 c #EBB3AD",
"5 c #ECC7C3",
"6 c #ECC9C5",
"7 c #EDCAC6",
"8 c #EDD1CE",
"9 c #EDD1CF",
"0 c #EDD2CF",
"q c #EDD3D0",
"w c #EDD4D1",
"e c #EEEEEE",
"r c #EFEFEF",
/* pixels */
"rrrrrrrrrrrrrrrrrrrrrrrrrrrr",
"eeeeeeeeeeeeeeeeeeeeeeeeeeee",
"eeeeeeeeeeeeeeeeeeeeeeeeeeee",
"eeeeeeeeeeeeeeeeeeeeeeeeeeee",
"eeeeeeeeeeeeeeeeeeeeeeeeeeee",
"eeeeeeeeeeeeeeeeeeeeeeeeeeee",
"eeeeeeeeeeeeeeeeeeeeeeeeeeee",
"eeeeeeeeeeeeeeeeeeeeeeeeeeee",
"eeeeeeeeeeee8<,<9eeeeeeeeeee",
"eeeeeeeeee5=%%%%%;6eeeeeeeee",
"eeeeeeeee3&%%%%%%%*3eeeeeeee",
"eeeeeeee5&$@%%%%%@$*6eeeeeee",
"eeeeeeee=%@.+%%%+.@%-eeeeeee",
"eeeeeee8%%%O.o%O.o%%%qeeeeee",
"eeeeeee<%%%%+.X.+%%%%1eeeeee",
"eeeeeee>%%%%%X X%%%%%>eeeeee",
"eeeeeee<%%%%O.X.O%%%%2eeeeee",
"eeeeeee9%%%O.o%O.o%%%weeeeee",
"eeeeeeee;%@.+%%%+.#%:eeeeeee",
"eeeeeeee6*$@%%%%%@$*7eeeeeee",
"eeeeeeeee3*%%%%%%%*4eeeeeeee",
"eeeeeeeeee6-%%%%%:7eeeeeeeee",
"eeeeeeeeeeee02,2qeeeeeeeeeee",
"eeeeeeeeeeeeeeeeeeeeeeeeeeee",
"eeeeeeeeeeeeeeeeeeeeeeeeeeee",
"eeeeeeeeeeeeeeeeeeeeeeeeeeee",
"eeeeeeeeeeeeeeeeeeeeeeeeeeee",
"eeeeeeeeeeeeeeeeeeeeeeeeeeee",
"eeeeeeeeeeeeeeeeeeeeeeeeeeee",
"eeeeeeeeeeeeeeeeeeeeeeeeeeee",
"eeeeeeeeeeeeeeeeeeeeeeeeeeee",
"eeeeeeeeeeeeeeeeeeeeeeeeeeee"
};
