/* XPM */
static char *hide_active[] = {
/* columns rows colors chars-per-pixel */
"28 32 26 1 ",
"  c #F1C40F",
". c #F1C411",
"X c #F1C511",
"o c #F1CB31",
"O c #F0CA32",
"+ c #F1CB32",
"@ c #F0CA33",
"# c #F0CB33",
"$ c #F1CB33",
"% c #EFDA84",
"& c #EFDA86",
"* c #EFDD95",
"= c #EFDE96",
"- c #EFDE98",
"; c #EFDE99",
": c #EFDE9A",
"> c #F0DE97",
", c #EFE4B9",
"< c #EFE4BA",
"1 c #EFE5BC",
"2 c #EEE6C6",
"3 c #EFE7C7",
"4 c #EFE7C8",
"5 c #EFE7C9",
"6 c #EEEEEE",
"7 c #EFEFEF",
/* pixels */
"7777777777777777777777777777",
"6666666666666666666666666666",
"6666666666666666666666666666",
"6666666666666666666666666666",
"6666666666666666666666666666",
"6666666666666666666666666666",
"6666666666666666666666666666",
"6666666666666666666666666666",
"6666666666662*&*366666666666",
"6666666666,+     $<666666666",
"666666666-.       X;66666666",
"66666666,.         X<6666666",
"66666666o           O6666666",
"66666662             5666666",
"6666666*             =666666",
"6666666%             %666666",
"6666666*             >666666",
"66666663             5666666",
"66666666$           @6666666",
"66666666<X         .16666666",
"666666666;X       .:66666666",
"6666666666<O     #1666666666",
"6666666666664>&>566666666666",
"6666666666666666666666666666",
"6666666666666666666666666666",
"6666666666666666666666666666",
"6666666666666666666666666666",
"6666666666666666666666666666",
"6666666666666666666666666666",
"6666666666666666666666666666",
"6666666666666666666666666666",
"6666666666666666666666666666"
};
