/* XPM */
static char *hide_inactive[] = {
/* columns rows colors chars-per-pixel */
"28 32 11 1 ",
"  c gray83",
". c #D5D5D5",
"X c gray85",
"o c #DADADA",
"O c #E2E2E2",
"+ c #E4E4E4",
"@ c gray91",
"# c #E9E9E9",
"$ c #EAEAEA",
"% c #EEEEEE",
"& c #EFEFEF",
/* pixels */
"&&&&&&&&&&&&&&&&&&&&&&&&&&&&",
"%%%%%%%%%%%%%%%%%%%%%%%%%%%%",
"%%%%%%%%%%%%%%%%%%%%%%%%%%%%",
"%%%%%%%%%%%%%%%%%%%%%%%%%%%%",
"%%%%%%%%%%%%%%%%%%%%%%%%%%%%",
"%%%%%%%%%%%%%%%%%%%%%%%%%%%%",
"%%%%%%%%%%%%%%%%%%%%%%%%%%%%",
"%%%%%%%%%%%%%%%%%%%%%%%%%%%%",
"%%%%%%%%%%%%#+O+#%%%%%%%%%%%",
"%%%%%%%%%%@o     o@%%%%%%%%%",
"%%%%%%%%%+.       .+%%%%%%%%",
"%%%%%%%%@.         .@%%%%%%%",
"%%%%%%%%o           X%%%%%%%",
"%%%%%%%#             $%%%%%%",
"%%%%%%%+             +%%%%%%",
"%%%%%%%O             O%%%%%%",
"%%%%%%%+             +%%%%%%",
"%%%%%%%#             $%%%%%%",
"%%%%%%%%o           X%%%%%%%",
"%%%%%%%%@.         .@%%%%%%%",
"%%%%%%%%%+.       .+%%%%%%%%",
"%%%%%%%%%%@X     X@%%%%%%%%%",
"%%%%%%%%%%%%$+O+$%%%%%%%%%%%",
"%%%%%%%%%%%%%%%%%%%%%%%%%%%%",
"%%%%%%%%%%%%%%%%%%%%%%%%%%%%",
"%%%%%%%%%%%%%%%%%%%%%%%%%%%%",
"%%%%%%%%%%%%%%%%%%%%%%%%%%%%",
"%%%%%%%%%%%%%%%%%%%%%%%%%%%%",
"%%%%%%%%%%%%%%%%%%%%%%%%%%%%",
"%%%%%%%%%%%%%%%%%%%%%%%%%%%%",
"%%%%%%%%%%%%%%%%%%%%%%%%%%%%",
"%%%%%%%%%%%%%%%%%%%%%%%%%%%%"
};
