/* XPM */
static char *hide_prelight[] = {
/* columns rows colors chars-per-pixel */
"28 32 28 1 ",
"  c #975914",
". c #C59012",
"X c #E5B610",
"o c #EFC20F",
"O c #F1C40F",
"+ c #F1C513",
"@ c #F1C514",
"# c #F1CD3C",
"$ c #F0CC3D",
"% c #F1CD3D",
"& c #F0CC3E",
"* c #EFDA84",
"= c #EFDA86",
"- c #EFDD95",
"; c #EFDE96",
": c #EFDE9A",
"> c #EFDE9B",
", c #EFDE9C",
"< c #F0DE97",
"1 c #EFE4B9",
"2 c #EFE4BA",
"3 c #EFE5BC",
"4 c #EEE6C6",
"5 c #EFE7C7",
"6 c #EFE7C8",
"7 c #EFE7C9",
"8 c #EEEEEE",
"9 c #EFEFEF",
/* pixels */
"9999999999999999999999999999",
"8888888888888888888888888888",
"8888888888888888888888888888",
"8888888888888888888888888888",
"8888888888888888888888888888",
"8888888888888888888888888888",
"8888888888888888888888888888",
"8888888888888888888888888888",
"8888888888884-=-588888888888",
"88888888881#OOOOO%2888888888",
"888888888:+OOOOOOO@>88888888",
"888888881+OOOOOOOOO@28888888",
"88888888#OOOOOOOOOOO$8888888",
"88888884OOOOOOOOOOOOO7888888",
"8888888-OoXXXXXXXXXoO;888888",
"8888888*O.         .O*888888",
"8888888-OoXXXXXXXXXoO<888888",
"88888885OOOOOOOOOOOOO7888888",
"88888888%OOOOOOOOOOO&8888888",
"888888882@OOOOOOOOO@38888888",
"888888888>@OOOOOOO@,88888888",
"88888888882$OOOOO&3888888888",
"8888888888886<=<788888888888",
"8888888888888888888888888888",
"8888888888888888888888888888",
"8888888888888888888888888888",
"8888888888888888888888888888",
"8888888888888888888888888888",
"8888888888888888888888888888",
"8888888888888888888888888888",
"8888888888888888888888888888",
"8888888888888888888888888888"
};
