/* XPM */
static char *maximize_prelight[] = {
/* columns rows colors chars-per-pixel */
"28 32 42 1 ",
"  c #0B7407",
". c #16902A",
"X c #16912A",
"o c #17922C",
"O c #18942D",
"+ c #20A847",
"@ c #21AB4A",
"# c #23B050",
"$ c #23B252",
"% c #24B352",
"& c #29BE60",
"* c #29BF61",
"= c #29C163",
"- c #2AC062",
"; c #2DCA6F",
": c #2DCB6F",
"> c #2DCB70",
", c #2ECB71",
"< c #2ECC71",
"1 c #31CD73",
"2 c #32CD74",
"3 c #55D38A",
"4 c #55D38B",
"5 c #56D38B",
"6 c #93DEB3",
"7 c #94DEB4",
"8 c #A1E1BC",
"9 c #A2E1BD",
"0 c #A3E1BD",
"q c #A5E1BF",
"w c #A6E1BF",
"e c #A8E1C0",
"r c #C0E6D0",
"t c #C2E6D1",
"y c #C3E7D2",
"u c #CBE8D7",
"i c #CCE8D8",
"p c #CDE8D8",
"a c #CEE8D9",
"s c #CFE9DA",
"d c #EEEEEE",
"f c #EFEFEF",
/* pixels */
"ffffffffffffffffffffffffffff",
"dddddddddddddddddddddddddddd",
"dddddddddddddddddddddddddddd",
"dddddddddddddddddddddddddddd",
"dddddddddddddddddddddddddddd",
"dddddddddddddddddddddddddddd",
"dddddddddddddddddddddddddddd",
"dddddddddddddddddddddddddddd",
"ddddddddddddu878iddddddddddd",
"ddddddddddr3<<<<<5tddddddddd",
"dddddddddq1<<<<<<<2wdddddddd",
"ddddddddr1<<*++++#,2tddddddd",
"dddddddd3<<<>o    %<4ddddddd",
"dddddddu<<-:<>o   @<<adddddd",
"ddddddd8<<@.;<>O  @<<9dddddd",
"ddddddd6<<@ .;<>O @<<6dddddd",
"ddddddd8<<@  .;<>O@<<0dddddd",
"dddddddi<<@   X:<>=<<sdddddd",
"dddddddd5<$    X:<<<5ddddddd",
"ddddddddt2,#++++&<<2yddddddd",
"dddddddddw2<<<<<<<2edddddddd",
"ddddddddddt4<<<<<5yddddddddd",
"ddddddddddddp070addddddddddd",
"dddddddddddddddddddddddddddd",
"dddddddddddddddddddddddddddd",
"dddddddddddddddddddddddddddd",
"dddddddddddddddddddddddddddd",
"dddddddddddddddddddddddddddd",
"dddddddddddddddddddddddddddd",
"dddddddddddddddddddddddddddd",
"dddddddddddddddddddddddddddd",
"dddddddddddddddddddddddddddd"
};
