/* XPM */
static char *menu_prelight[] = {
/* columns rows colors chars-per-pixel */
"28 32 3 1 ",
"  c #FF5D73",
". c #EEEEEE",
"X c #EFEFEF",
/* pixels */
"XXXXXXXXXXXXXXXXXXXXXXXXXXXX",
"............................",
"............................",
"............................",
"............................",
"............................",
"............................",
"............................",
"............................",
"............................",
"............................",
"............................",
"..........        ..........",
"..........        ..........",
"............................",
"..........        ..........",
"..........        ..........",
"............................",
"..........        ..........",
"..........        ..........",
"............................",
"............................",
"............................",
"............................",
"............................",
"............................",
"............................",
"............................",
"............................",
"............................",
"............................",
"............................"
};
