/* XPM */
static char *menu_active[] = {
/* columns rows colors chars-per-pixel */
"28 32 3 1 ",
"  c #31363D",
". c #EEEEEE",
"X c #EFEFEF",
/* pixels */
"XXXXXXXXXXXXXXXXXXXXXXXXXXXX",
"............................",
"............................",
"............................",
"............................",
"............................",
"............................",
"............................",
"............................",
"............................",
"............................",
"............................",
"..........        ..........",
"..........        ..........",
"............................",
"..........        ..........",
"..........        ..........",
"............................",
"..........        ..........",
"..........        ..........",
"............................",
"............................",
"............................",
"............................",
"............................",
"............................",
"............................",
"............................",
"............................",
"............................",
"............................",
"............................"
};
