/* XPM */
static char *menu_inactive[] = {
/* columns rows colors chars-per-pixel */
"28 32 3 1 ",
"  c gray47",
". c #EEEEEE",
"X c #EFEFEF",
/* pixels */
"XXXXXXXXXXXXXXXXXXXXXXXXXXXX",
"............................",
"............................",
"............................",
"............................",
"............................",
"............................",
"............................",
"............................",
"............................",
"............................",
"............................",
"..........        ..........",
"..........        ..........",
"............................",
"..........        ..........",
"..........        ..........",
"............................",
"..........        ..........",
"..........        ..........",
"............................",
"............................",
"............................",
"............................",
"............................",
"............................",
"............................",
"............................",
"............................",
"............................",
"............................",
"............................"
};
