/* XPM */
static char *stick_prelight[] = {
/* columns rows colors chars-per-pixel */
"28 32 30 1 ",
"  c #FF5D73",
". c #FD687E",
"X c #FD697F",
"o c #FD6A7F",
"O c #F796A9",
"+ c #F797A9",
"@ c #F797AA",
"# c #EED6E5",
"$ c #EED9E7",
"% c #EEDAE7",
"& c #EDDCE7",
"* c #EDDCE8",
"= c #EEDCE8",
"- c #EDDEE8",
"; c #EDDFE9",
": c #EEDEE8",
"> c #EEDEE9",
", c #EEE0E9",
"< c #EEE1EA",
"1 c #EEE2EA",
"2 c #EEE5EB",
"3 c #EEE6EC",
"4 c #EFE6EC",
"5 c #EEE8EC",
"6 c #EDEBED",
"7 c #EEEBED",
"8 c #EEECED",
"9 c #EEECEE",
"0 c #EEEEEE",
"q c #EFEFEF",
/* pixels */
"qqqqqqqqqqqqqqqqqqqqqqqqqqqq",
"0000000000000000000000000000",
"0000000000000000000000000000",
"0000000000000000000000000000",
"00000000072>*%%*>27000000000",
"00000006<$$$$$$$$$$;70000000",
"0000005%$$$$$$$$$$$$%5000000",
"000002$$$$$$$$$$$$$$$$200000",
"00005$$$$$$$$$$$$$$$$$$50000",
"0007%$$$$$$$$$$$$$$$$$$%6000",
"000<$$$$$$$$$$$$$$$$$$$$<000",
"007$$$$$$$$$$$$$$$$$$$$$$700",
"002$$$$$$$$$$$$$$$$$$$$$$400",
"00:$$$$$$$$#OXo+#$$$$$$$$-00",
"00=$$$$$$$$+    +$$$$$$$$*00",
"00%$$$$$$$$X    .$$$$$$$$%00",
"00%$$$$$$$$o    o$$$$$$$$%00",
"00=$$$$$$$$+    @$$$$$$$$&00",
"00:$$$$$$$$#+oo+#$$$$$$$$-00",
"002$$$$$$$$$$$$$$$$$$$$$$300",
"007$$$$$$$$$$$$$$$$$$$$$$700",
"000<$$$$$$$$$$$$$$$$$$$$<000",
"0006%$$$$$$$$$$$$$$$$$$%9000",
"00005$$$$$$$$$$$$$$$$$$50000",
"000002$$$$$$$$$$$$$$$$200000",
"0000005%$$$$$$$$$$$$%5000000",
"000000081$$$$$$$$$$,90000000",
"00000000074-&%%&-47000000000",
"0000000000000000000000000000",
"0000000000000000000000000000",
"0000000000000000000000000000",
"0000000000000000000000000000"
};
