/* XPM */
static char *top_right_active[] = {
/* columns rows colors chars-per-pixel */
"4 32 4 1 ",
"  c #EEEEEE",
". c gray94",
"X c #F1F1F1",
"o c gray98",
/* pixels */
"..Xo",
"   .",
"    ",
"    ",
"    ",
"    ",
"    ",
"    ",
"    ",
"    ",
"    ",
"    ",
"    ",
"    ",
"    ",
"    ",
"    ",
"    ",
"    ",
"    ",
"    ",
"    ",
"    ",
"    ",
"    ",
"    ",
"    ",
"    ",
"    ",
"    ",
"    ",
"    "
};
