/* XPM */
static char *top_left_active_shaded[] = {
/* columns rows colors chars-per-pixel */
"4 32 4 1 ",
"  c #EEEEEE",
". c gray94",
"X c #F1F1F1",
"o c gray98",
/* pixels */
"oX..",
".   ",
"    ",
"    ",
"    ",
"    ",
"    ",
"    ",
"    ",
"    ",
"    ",
"    ",
"    ",
"    ",
"    ",
"    ",
"    ",
"    ",
"    ",
"    ",
"    ",
"    ",
"    ",
"    ",
"    ",
"    ",
"    ",
"    ",
"    ",
"    ",
"    ",
"    "
};
