<?xml version="1.0" encoding="UTF-8" standalone="no"?><!-- Generator: Gravit.io --><svg xmlns="http://www.w3.org/2000/svg" xmlns:xlink="http://www.w3.org/1999/xlink" style="isolation:isolate" viewBox="0 0 3965 2645" width="3965pt" height="2645pt"><defs><clipPath id="_clipPath_2cf7MEM5duC94OdPEnEEZPnVMT4DBv31"><rect width="3965" height="2645"/></clipPath></defs><g clip-path="url(#_clipPath_2cf7MEM5duC94OdPEnEEZPnVMT4DBv31)"><rect width="3965" height="2645" style="fill:rgb(80,124,124)"/><path d=" M 4071.48 2770.035 L 2972 1717.267 L 1642.557 2966.316" fill="none" vector-effect="non-scaling-stroke" stroke-width="70" stroke="rgb(32,40,44)" stroke-linejoin="miter" stroke-linecap="square" stroke-miterlimit="3"/><defs><filter id="CdUJXcLi7HIMwUiNkxfoI1NEd48TLatC" x="-200%" y="-200%" width="400%" height="400%" filterUnits="objectBoundingBox" color-interpolation-filters="sRGB"><feGaussianBlur xmlns="http://www.w3.org/2000/svg" in="SourceGraphic" stdDeviation="60.110526879746395"/><feOffset xmlns="http://www.w3.org/2000/svg" dx="50" dy="0" result="pf_100_offsetBlur"/><feFlood xmlns="http://www.w3.org/2000/svg" flood-color="#000000" flood-opacity="0.65"/><feComposite xmlns="http://www.w3.org/2000/svg" in2="pf_100_offsetBlur" operator="in" result="pf_100_dropShadow"/><feBlend xmlns="http://www.w3.org/2000/svg" in="SourceGraphic" in2="pf_100_dropShadow" mode="normal"/></filter></defs><g filter="url(#CdUJXcLi7HIMwUiNkxfoI1NEd48TLatC)"><path d=" M 0 0 L 4930.893 0 C 5195.166 300.624 5410.813 679.071 4656.616 1016 C 3902.419 1352.929 3801.727 2226.1 4241.518 2645 L 0 2645 L 0 0 Z " fill="rgb(37,46,50)"/></g><path d=" M 4071.48 2770.035 L 2972 1717.267 L 1642.557 2966.316" fill="none" vector-effect="non-scaling-stroke" stroke-width="70" stroke="rgb(77,120,120)" stroke-opacity="0.4" stroke-linejoin="miter" stroke-linecap="square" stroke-miterlimit="3"/><path d=" M 798 568 L 1516 1346.302 L 261 2645" fill="none" vector-effect="non-scaling-stroke" stroke-width="70" stroke="rgb(77,120,120)" stroke-opacity="0.4" stroke-linejoin="miter" stroke-linecap="square" stroke-miterlimit="3"/><path d=" M -2.885 217 L 1044.73 1346.302 L -210.27 2645" fill="none" vector-effect="non-scaling-stroke" stroke-width="20" stroke="rgb(77,120,120)" stroke-opacity="0.4" stroke-linejoin="miter" stroke-linecap="square" stroke-miterlimit="3"/><path d=" M -79 217 L 968.615 1346.302 L -286.385 2645" fill="none" vector-effect="non-scaling-stroke" stroke-width="20" stroke="rgb(77,120,120)" stroke-opacity="0.4" stroke-linejoin="miter" stroke-linecap="square" stroke-miterlimit="3"/><path d=" M -158.5 217 L 889.115 1346.302 L -365.885 2645" fill="none" vector-effect="non-scaling-stroke" stroke-width="20" stroke="rgb(77,120,120)" stroke-opacity="0.4" stroke-linejoin="miter" stroke-linecap="square" stroke-miterlimit="3"/><path d=" M -234.615 217 L 813 1346.302 L -442 2645" fill="none" vector-effect="non-scaling-stroke" stroke-width="20" stroke="rgb(77,120,120)" stroke-opacity="0.4" stroke-linejoin="miter" stroke-linecap="square" stroke-miterlimit="3"/><rect x="246.753" y="1698.138" width="353.724" height="353.724" transform="matrix(0.718,0.696,-0.696,0.718,1423.484,233.252)" fill="rgb(80,124,124)"/><defs><filter id="2oRvSTkp2S3BRTRX0haRt78cdoQOvDCj" x="-200%" y="-200%" width="400%" height="400%" filterUnits="objectBoundingBox" color-interpolation-filters="sRGB"><feGaussianBlur xmlns="http://www.w3.org/2000/svg" in="SourceGraphic" stdDeviation="30.055263439873197"/><feOffset xmlns="http://www.w3.org/2000/svg" dx="0" dy="0" result="pf_100_offsetBlur"/><feFlood xmlns="http://www.w3.org/2000/svg" flood-color="#000000" flood-opacity="0.65"/><feComposite xmlns="http://www.w3.org/2000/svg" in2="pf_100_offsetBlur" operator="in" result="pf_100_dropShadow"/><feBlend xmlns="http://www.w3.org/2000/svg" in="SourceGraphic" in2="pf_100_dropShadow" mode="normal"/></filter></defs><g filter="url(#2oRvSTkp2S3BRTRX0haRt78cdoQOvDCj)"><path d=" M 235 0 L 771 588 L 1339 0 L 235 0 Z " fill="rgb(32,40,44)" vector-effect="non-scaling-stroke" stroke-width="1" stroke="rgb(37,46,50)" stroke-linejoin="miter" stroke-linecap="square" stroke-miterlimit="3"/></g><defs><filter id="HzOpzPeofsSrqJfEVQSCt36pltQpE6Zx" x="-200%" y="-200%" width="400%" height="400%" filterUnits="objectBoundingBox" color-interpolation-filters="sRGB"><feGaussianBlur xmlns="http://www.w3.org/2000/svg" in="SourceGraphic" stdDeviation="30.055263439873197"/><feOffset xmlns="http://www.w3.org/2000/svg" dx="0" dy="0" result="pf_100_offsetBlur"/><feFlood xmlns="http://www.w3.org/2000/svg" flood-color="#000000" flood-opacity="0.65"/><feComposite xmlns="http://www.w3.org/2000/svg" in2="pf_100_offsetBlur" operator="in" result="pf_100_dropShadow"/><feBlend xmlns="http://www.w3.org/2000/svg" in="SourceGraphic" in2="pf_100_dropShadow" mode="normal"/></filter></defs><g filter="url(#HzOpzPeofsSrqJfEVQSCt36pltQpE6Zx)"><path d=" M 3963.819 1631.613 L 3373.278 2164.812 L 3958.572 2735.6 L 3963.819 1631.613 Z " fill="rgb(32,40,44)"/></g><rect x="1011.536" y="800.843" width="226.928" height="226.928" transform="matrix(0.685,0.729,-0.729,0.685,1020.891,-531.633)" fill="rgb(80,124,124)"/><rect x="1011.536" y="800.843" width="226.928" height="226.928" transform="matrix(0.685,0.729,-0.729,0.685,1020.891,-531.633)" fill="rgb(80,124,124)"/><rect x="1879.421" y="2531.536" width="226.928" height="226.928" transform="matrix(0.7,0.714,-0.714,0.7,2486.675,-629.719)" fill="rgb(80,124,124)"/><rect x="2833.516" y="314.081" width="226.928" height="226.928" transform="matrix(0.7,0.714,-0.714,0.7,1189.35,-1976.248)" fill="rgb(80,124,124)" fill-opacity="0.5"/><mask id="_mask_rtH4axqwo4JLz2VVR7FqBJ1abFKJrjcD"><rect x="-131.368" y="1087.284" width="544.735" height="544.735" fill="white" stroke="none"/></mask><rect x="-131.368" y="1087.284" width="544.735" height="544.735" transform="matrix(0.685,0.729,-0.729,0.685,1035.268,325.815)" fill="none"/><rect x="-131.368" y="1087.284" width="544.735" height="544.735" transform="matrix(0.685,0.729,-0.729,0.685,1035.268,325.815)" fill="none" mask="url(#_mask_rtH4axqwo4JLz2VVR7FqBJ1abFKJrjcD)" vector-effect="non-scaling-stroke" stroke-width="30" stroke="rgb(80,124,124)" stroke-linejoin="miter" stroke-linecap="square" stroke-miterlimit="2"/><mask id="_mask_xa25T2kYKxQ9ITyPupMd3WoqBldGJVfN"><rect x="3908.345" y="1217.997" width="283.309" height="283.309" fill="white" stroke="none"/></mask><rect x="3908.345" y="1217.997" width="283.309" height="283.309" transform="matrix(0.747,0.665,-0.665,0.747,1931.334,-2350.121)" fill="none"/><rect x="3908.345" y="1217.997" width="283.309" height="283.309" transform="matrix(0.747,0.665,-0.665,0.747,1931.334,-2350.121)" fill="none" mask="url(#_mask_xa25T2kYKxQ9ITyPupMd3WoqBldGJVfN)" vector-effect="non-scaling-stroke" stroke-width="30" stroke="rgb(80,124,124)" stroke-linejoin="miter" stroke-linecap="square" stroke-miterlimit="2"/><mask id="_mask_c9mccuHeHpOmQ0p7gxd415a4M2DiGWEZ"><rect x="3908.345" y="1217.997" width="283.309" height="283.309" fill="white" stroke="none"/></mask><rect x="3908.345" y="1217.997" width="283.309" height="283.309" transform="matrix(0.747,0.665,-0.665,0.747,1931.334,-2350.121)" fill="none"/><rect x="3908.345" y="1217.997" width="283.309" height="283.309" transform="matrix(0.747,0.665,-0.665,0.747,1931.334,-2350.121)" fill="none" mask="url(#_mask_c9mccuHeHpOmQ0p7gxd415a4M2DiGWEZ)" vector-effect="non-scaling-stroke" stroke-width="30" stroke="rgb(32,40,44)" stroke-linejoin="miter" stroke-linecap="square" stroke-miterlimit="2"/><defs><filter id="vBtpDQwcvykTV66B8xC5Kh25X1E81BpQ" x="-200%" y="-200%" width="400%" height="400%" filterUnits="objectBoundingBox" color-interpolation-filters="sRGB"><feGaussianBlur xmlns="http://www.w3.org/2000/svg" in="SourceGraphic" stdDeviation="42.93609062839028"/><feOffset xmlns="http://www.w3.org/2000/svg" dx="0" dy="0" result="pf_100_offsetBlur"/><feFlood xmlns="http://www.w3.org/2000/svg" flood-color="#000000" flood-opacity="0.65"/><feComposite xmlns="http://www.w3.org/2000/svg" in2="pf_100_offsetBlur" operator="in" result="pf_100_dropShadow"/><feBlend xmlns="http://www.w3.org/2000/svg" in="SourceGraphic" in2="pf_100_dropShadow" mode="normal"/></filter></defs><g filter="url(#vBtpDQwcvykTV66B8xC5Kh25X1E81BpQ)"><mask id="_mask_t5L5y1eoN1Bpje0lpfvfbsKgAgd5ZNbX"><rect x="3014.662" y="-363.368" width="544.735" height="544.735" fill="white" stroke="none"/></mask><rect x="3014.662" y="-363.368" width="544.735" height="544.735" transform="matrix(0.685,0.729,-0.729,0.685,969.768,-2424.055)" fill="rgb(32,40,44)"/><rect x="3014.662" y="-363.368" width="544.735" height="544.735" transform="matrix(0.685,0.729,-0.729,0.685,969.768,-2424.055)" fill="rgb(32,40,44)" mask="url(#_mask_t5L5y1eoN1Bpje0lpfvfbsKgAgd5ZNbX)" vector-effect="non-scaling-stroke" stroke-width="30" stroke="rgb(80,124,124)" stroke-linejoin="miter" stroke-linecap="square" stroke-miterlimit="2"/></g><defs><filter id="5lGlc8Whz4M0Qwc1vB4DJKJrqNPU3kBp" x="-200%" y="-200%" width="400%" height="400%" filterUnits="objectBoundingBox" color-interpolation-filters="sRGB"><feGaussianBlur xmlns="http://www.w3.org/2000/svg" in="SourceGraphic" stdDeviation="2.146804531419514"/><feOffset xmlns="http://www.w3.org/2000/svg" dx="0" dy="0" result="pf_100_offsetBlur"/><feFlood xmlns="http://www.w3.org/2000/svg" flood-color="#1E282C" flood-opacity="0.65"/><feComposite xmlns="http://www.w3.org/2000/svg" in2="pf_100_offsetBlur" operator="in" result="pf_100_dropShadow"/><feBlend xmlns="http://www.w3.org/2000/svg" in="SourceGraphic" in2="pf_100_dropShadow" mode="normal"/></filter></defs><g filter="url(#5lGlc8Whz4M0Qwc1vB4DJKJrqNPU3kBp)"><path d=" M 1832.5 1474.651 L 1908.69 1474.651 L 1998.513 1282.585 C 1998.748 1282.083 1999.001 1281.231 1999.079 1280.683 C 2002.426 1257.053 2012.905 1212.709 1981.054 1170.349 L 1832.5 1474.651 Z  M 2132.5 1474.651 L 2056.989 1474.651 L 1998.938 1346.302 C 2014.128 1324.421 2025.283 1301.223 2018.088 1251.176 L 2132.5 1474.651 Z " fill-rule="evenodd" fill="rgb(80,124,123)" vector-effect="non-scaling-stroke" stroke-width="1" stroke="rgb(30,40,44)" stroke-linejoin="miter" stroke-linecap="square" stroke-miterlimit="3"/></g></g></svg>